name C:\Users\r0593348\3dpredictsim\Results\batch_windlass\Pog_s1_tmt_bCst_d05_k1500_WL30_ig24_pas.mot
datacolumns 128
datarows 4
range 1.07730759 1.10962682
endheader
time	pelvis_tilt	pelvis_list	pelvis_rotation	pelvis_tx	pelvis_ty	pelvis_tz	hip_flexion_l	hip_adduction_l	hip_rotation_l	hip_flexion_r	hip_adduction_r	hip_rotation_r	knee_angle_l	knee_angle_r	ankle_angle_l	ankle_angle_r	subtalar_angle_l	subtalar_angle_r	tmt_angle_l	tmt_angle_r	mtp_angle_l	mtp_angle_r	lumbar_extension	lumbar_bending	lumbar_rotation	arm_flex_l	arm_add_l	arm_rot_l	arm_flex_r	arm_add_r	arm_rot_r	elbow_flex_l	elbow_flex_r	pro_sup_l	pro_sup_r	glut_med1_l/activation	glut_med2_l/activation	glut_med3_l/activation	glut_min1_l/activation	glut_min2_l/activation	glut_min3_l/activation	semimem_l/activation	semiten_l/activation	bifemlh_l/activation	bifemsh_l/activation	sar_l/activation	add_long_l/activation	add_brev_l/activation	add_mag1_l/activation	add_mag2_l/activation	add_mag3_l/activation	tfl_l/activation	pect_l/activation	grac_l/activation	glut_max1_l/activation	glut_max2_l/activation	glut_max3_l/activation	iliacus_l/activation	psoas_l/activation	quad_fem_l/activation	gem_l/activation	peri_l/activation	rect_fem_l/activation	vas_med_l/activation	vas_int_l/activation	vas_lat_l/activation	med_gas_l/activation	lat_gas_l/activation	soleus_l/activation	tib_post_l/activation	flex_dig_l/activation	flex_hal_l/activation	tib_ant_l/activation	per_brev_l/activation	per_long_l/activation	per_tert_l/activation	ext_dig_l/activation	ext_hal_l/activation	ercspn_l/activation	intobl_l/activation	extobl_l/activation	glut_med1_r/activation	glut_med2_r/activation	glut_med3_r/activation	glut_min1_r/activation	glut_min2_r/activation	glut_min3_r/activation	semimem_r/activation	semiten_r/activation	bifemlh_r/activation	bifemsh_r/activation	sar_r/activation	add_long_r/activation	add_brev_r/activation	add_mag1_r/activation	add_mag2_r/activation	add_mag3_r/activation	tfl_r/activation	pect_r/activation	grac_r/activation	glut_max1_r/activation	glut_max2_r/activation	glut_max3_r/activation	iliacus_r/activation	psoas_r/activation	quad_fem_r/activation	gem_r/activation	peri_r/activation	rect_fem_r/activation	vas_med_r/activation	vas_int_r/activation	vas_lat_r/activation	med_gas_r/activation	lat_gas_r/activation	soleus_r/activation	tib_post_r/activation	flex_dig_r/activation	flex_hal_r/activation	tib_ant_r/activation	per_brev_r/activation	per_long_r/activation	per_tert_r/activation	ext_dig_r/activation	ext_hal_r/activation	ercspn_r/activation	intobl_r/activation	extobl_r/activation	
          1.07730759	         -2.92329915	         -1.68579801	          5.80980369	          1.34663449	          0.85886668	         -0.00196260	        -18.05848408	         -1.64454930	          7.30566329	         31.72259920	          1.96949269	         -4.36212282	         -8.85788089	        -18.80117462	          0.73361445	          2.74412481	         12.72802150	          1.83158954	         -9.21060009	         -0.29920757	         28.92218044	          0.87600777	         -1.12593719	         -0.03868409	         -1.85700313	          6.39557853	        -13.46735969	         17.45188473	         -8.76478246	        -13.56268672	         10.03956750	         33.53497156	         14.73499398	         86.51662706	         86.51662706	          0.25608315	          0.09044827	          0.05000009	          0.28102536	          0.19201528	          0.09276703	          0.05000106	          0.05000014	          0.05000011	          0.06956744	          0.08261939	          0.14409044	          0.05826513	          0.05000129	          0.05000159	          0.05000182	          0.30264187	          0.05696015	          0.05000042	          0.05000163	          0.05000123	          0.05000119	          0.31445943	          0.55600781	          0.05000017	          0.05000063	          0.05000017	          0.24697347	          0.10483956	          0.10437770	          0.05880454	          0.28260707	          0.36505783	          0.22140281	          0.21519194	          0.20707272	          0.27347806	          0.05000000	          0.12834737	          0.18727095	          0.05000003	          0.05000000	          0.05000002	          0.05000000	          0.05000006	          0.05000001	          0.05002755	          0.05000027	          0.05897752	          0.05000010	          0.05000014	          0.05000054	          0.05000045	          0.05897757	          0.17204657	          0.05614923	          0.05000027	          0.09298754	          0.12642452	          0.17060633	          0.18176019	          0.14237442	          0.05000380	          0.05000173	          0.05897772	          0.05897759	          0.12941477	          0.11742040	          0.06048426	          0.06278903	          0.21089238	          0.05000010	          0.05000015	          0.05112589	          0.11211220	          0.11861223	          0.09563577	          0.05897757	          0.05897751	          0.05582801	          0.05000003	          0.05897772	          0.05897767	          0.48376237	          0.31870228	          0.17836087	          0.20194030	          0.54755758	          0.14750723	          0.05522789	          0.10350270	          0.11417057	
          1.08808067	         -2.91235444	         -1.76495399	          6.05927523	          1.36319265	          0.85784397	         -0.00176718	        -17.83854298	         -1.92761126	          7.12519084	         31.14257399	          2.35195040	         -4.14411136	        -10.85599197	        -18.43465159	         -0.32960095	          2.42289133	         13.61595296	          1.28418152	         -9.61038624	         -0.36810206	         29.78534186	          1.06801812	         -0.90527925	          0.20038741	         -1.93066154	          6.14526840	        -13.49556707	         17.68461107	         -9.86474916	        -13.55625446	          9.81243109	         34.58660464	         14.69843325	         86.51662706	         86.51662706	          0.21710222	          0.07668024	          0.05000002	          0.23824773	          0.16278674	          0.07864606	          0.05000035	          0.05000005	          0.05000003	          0.05897789	          0.07004319	          0.19086372	          0.20945633	          0.06611650	          0.05000070	          0.05000009	          0.25711564	          0.12444910	          0.05000263	          0.05000039	          0.05000022	          0.05000016	          0.26659246	          0.51264801	          0.05000008	          0.05000021	          0.05000012	          0.20937920	          0.08888109	          0.08848951	          0.13768902	          0.23958863	          0.30948874	          0.18770088	          0.18243544	          0.17555216	          0.23184927	          0.05000003	          0.10881037	          0.15876460	          0.05000006	          0.05000010	          0.05000009	          0.05141966	          0.05121124	          0.05000005	          0.05792773	          0.05897735	          0.05000003	          0.05897761	          0.05897758	          0.05000229	          0.05000006	          0.05000004	          0.17519807	          0.05000001	          0.05000023	          0.09679148	          0.24208414	          0.14463688	          0.15409439	          0.15374061	          0.05000005	          0.08205596	          0.05000025	          0.05000009	          0.17427036	          0.18595732	          0.05897760	          0.05323146	          0.27339737	          0.15884722	          0.12707758	          0.06349109	          0.20308810	          0.19829145	          0.16937413	          0.05000003	          0.05000003	          0.05000001	          0.05000001	          0.05000018	          0.05000018	          0.64738840	          0.27018945	          0.15121079	          0.53447332	          0.61558371	          0.29488727	          0.05000002	          0.08774752	          0.09679153	
          1.09885374	         -2.89648179	         -1.85067669	          6.28144629	          1.37999527	          0.85664132	         -0.00157898	        -17.52231298	         -2.19925545	          6.92942824	         30.43834576	          2.71629681	         -3.84848053	        -13.04616770	        -18.67775965	         -1.45115941	          2.13522470	         14.44760107	          0.71464946	         -9.88491716	         -0.47981935	         30.19017662	          1.33569959	         -0.66646822	          0.45416736	         -1.99434569	          5.81532967	        -13.53345727	         17.84369740	        -10.96167663	        -13.55723738	          9.64389788	         35.64122784	         14.66023406	         86.51662706	         86.51662706	          0.18405495	          0.06500799	          0.05424102	          0.20198170	          0.13800737	          0.06667457	          0.05000137	          0.05000023	          0.05897711	          0.05000029	          0.05938127	          0.24205839	          0.35749492	          0.19147591	          0.09368657	          0.13466986	          0.21797776	          0.10550563	          0.05000147	          0.05001090	          0.05897587	          0.05897773	          0.22601178	          0.46592265	          0.05897756	          0.05897744	          0.05000019	          0.17750751	          0.13000168	          0.13629621	          0.11673054	          0.20311846	          0.26237837	          0.15912906	          0.15466513	          0.14882966	          0.19655721	          0.14345963	          0.09224734	          0.17539113	          0.05000017	          0.16409330	          0.11722179	          0.06993243	          0.05897759	          0.05897762	          0.05000001	          0.05000004	          0.18531201	          0.05000006	          0.05000004	          0.05000005	          0.05000065	          0.05214743	          0.14852950	          0.05000010	          0.05000028	          0.08205792	          0.20523415	          0.31017742	          0.27336056	          0.18620555	          0.05000012	          0.06956610	          0.13361967	          0.15001283	          0.18153749	          0.15952492	          0.05000010	          0.05000011	          0.28291805	          0.13466753	          0.10773386	          0.05382656	          0.24273578	          0.24502559	          0.20931506	          0.05000008	          0.05000011	          0.05000000	          0.05000000	          0.05000063	          0.05000014	          0.54884309	          0.23969980	          0.13642606	          0.52907642	          0.56048597	          0.24999957	          0.05000000	          0.07439060	          0.08205793	
          1.10962682	         -2.87757812	         -1.94396106	          6.47146085	          1.39688176	          0.85528477	         -0.00140341	        -17.09488610	         -2.45369700	          6.72918990	         29.56408027	          3.04301784	         -3.51133786	        -15.44922095	        -19.15695024	         -2.55096876	          2.14955667	         15.19515580	          0.10081609	         -9.86104683	         -0.69914074	         29.70958619	          1.53290804	         -0.42304418	          0.72137341	         -2.04604457	          5.42968166	        -13.57746380	         17.93537249	        -12.01651056	        -13.56940703	          9.56729729	         36.68932127	         14.59266177	         86.51662706	         86.51662706	          0.18195300	          0.05511249	          0.05000000	          0.20955364	          0.11699993	          0.05652539	          0.05000312	          0.05000013	          0.05000007	          0.05000011	          0.05897633	          0.20536730	          0.30307708	          0.16232948	          0.07942568	          0.11417045	          0.29544018	          0.08944571	          0.05000031	          0.05000025	          0.05000016	          0.05000024	          0.19808131	          0.44732401	          0.05000003	          0.05000010	          0.05000002	          0.15048733	          0.11021284	          0.11554921	          0.09896183	          0.17219977	          0.22243915	          0.13490644	          0.13112203	          0.12617486	          0.16663733	          0.19427324	          0.13339224	          0.14869333	          0.19193880	          0.21537397	          0.11043354	          0.09765362	          0.05000002	          0.05000005	          0.29997072	          0.36023834	          0.49779003	          0.37791976	          0.29431284	          0.39308166	          0.07945551	          0.09953141	          0.12592086	          0.06956678	          0.05000019	          0.06956708	          0.17399343	          0.26296225	          0.23174968	          0.16384658	          0.05000009	          0.05897715	          0.11328022	          0.28244510	          0.23730523	          0.16016540	          0.05000010	          0.05000006	          0.23985231	          0.11416851	          0.25839922	          0.05000001	          0.26072925	          0.27749216	          0.23438421	          0.05000001	          0.05000004	          0.05000005	          0.05247438	          0.05000027	          0.05000057	          0.67271867	          0.20321271	          0.11565929	          0.45713960	          0.59285698	          0.37321802	          0.05732102	          0.08205782	          0.06956708	
